<?xml version="1.0" standalone="no"?>
<!DOCTYPE svg PUBLIC "-//W3C//DTD SVG 20010904//EN"
 "http://www.w3.org/TR/2001/REC-SVG-20010904/DTD/svg10.dtd">
<svg version="1.0" xmlns="http://www.w3.org/2000/svg"
 width="150.000000pt" height="80.000000pt" viewBox="0 0 800.000000 480.000000"
 preserveAspectRatio="xMidYMid meet">

<g transform="translate(0.000000,480.000000) scale(0.100000,-0.100000)"
fill="#FFFFFF" stroke="none">
<path d="M3137 4077 c-32 -50 -86 -166 -106 -230 -11 -37 -32 -134 -47 -215
-23 -131 -25 -162 -20 -287 4 -77 9 -166 12 -198 3 -32 3 -69 0 -83 -8 -31
-68 -69 -194 -125 -163 -71 -242 -110 -242 -120 0 -16 17 -10 198 65 193 80
273 108 289 98 27 -18 85 -162 143 -361 22 -74 43 -137 46 -140 15 -15 -32
241 -77 421 -16 64 -29 137 -29 162 0 24 18 104 40 178 46 153 75 284 90 413
11 97 14 403 4 429 -4 11 -19 16 -49 16 -33 0 -46 -5 -58 -23z m59 -187 c13
-50 15 -90 11 -175 -5 -106 -27 -238 -46 -280 -5 -11 -15 -42 -21 -70 -15 -66
-47 -140 -70 -160 -17 -15 -19 -14 -29 17 -6 18 -17 80 -25 137 -24 168 5 379
69 515 27 56 72 103 86 89 5 -5 16 -37 25 -73z"/>
<path d="M5580 3804 c-105 -20 -269 -120 -320 -195 -34 -51 -36 -68 -13 -154
l17 -62 -55 -99 c-39 -71 -74 -118 -124 -168 l-70 -69 38 6 c46 7 93 56 216
226 95 132 134 177 174 197 27 14 28 14 54 -30 15 -25 37 -49 49 -55 19 -8 24
-6 34 20 11 25 10 36 -5 70 -33 72 -120 92 -200 44 -24 -14 -46 -25 -49 -25
-13 0 -5 53 14 89 52 104 225 181 405 181 150 0 261 -47 371 -155 83 -83 136
-161 209 -310 164 -332 211 -726 130 -1085 -44 -198 -92 -286 -239 -440 -80
-83 -80 -85 -53 -88 45 -5 130 42 187 104 58 65 119 183 152 299 22 76 23 95
23 410 0 330 0 330 -28 435 -123 461 -316 736 -583 831 -45 16 -88 22 -184 24
-69 2 -136 1 -150 -1z"/>
<path d="M6002 3663 c82 -88 86 -218 13 -364 -57 -111 -175 -199 -250 -185
-58 11 -69 45 -73 219 -3 122 -6 147 -19 147 -24 0 -15 -295 10 -333 24 -37
75 -67 112 -67 53 0 146 53 213 122 72 74 92 100 131 178 24 48 26 62 20 109
-8 63 -45 120 -108 168 -54 42 -86 45 -49 6z"/>
<path d="M5756 3024 c-38 -19 -126 -66 -195 -103 -69 -38 -151 -77 -181 -86
-30 -10 -75 -23 -100 -31 -69 -22 -158 -18 -210 9 -52 26 -59 46 -31 86 25 35
26 49 6 78 -37 53 -118 33 -131 -33 -6 -33 -3 -39 37 -80 89 -91 187 -117 344
-91 50 8 92 13 94 11 3 -2 -21 -41 -52 -87 -75 -109 -126 -222 -209 -456 -37
-107 -72 -199 -77 -204 -6 -6 -27 8 -55 34 -58 53 -88 55 -145 10 -42 -33
-145 -156 -188 -225 -78 -122 -151 -320 -139 -371 8 -32 57 -72 98 -79 36 -7
39 -5 115 76 196 207 238 248 241 239 2 -6 -4 -45 -12 -87 -22 -107 -21 -165
5 -198 42 -53 80 -21 138 119 17 41 34 89 38 106 l6 31 -32 -17 c-18 -9 -34
-15 -36 -13 -6 6 45 235 76 338 84 287 164 483 243 593 44 61 57 72 91 80 22
4 52 6 68 3 30 -6 33 1 15 39 -7 17 -34 38 -71 57 -32 16 -57 31 -56 33 11 10
250 107 255 103 2 -3 -8 -43 -23 -89 -26 -77 -28 -95 -26 -222 2 -179 12 -210
199 -587 169 -342 199 -413 245 -573 18 -64 38 -116 43 -114 20 7 27 69 17
138 -21 131 -62 225 -211 484 -214 371 -240 436 -240 604 0 123 17 192 85 350
77 179 76 183 -39 125z m-721 -1036 c-18 -58 -84 -165 -160 -260 -121 -152
-186 -218 -214 -218 -22 0 -23 3 -17 48 9 63 63 174 135 280 92 134 140 172
219 172 40 0 43 -2 37 -22z"/>
<path d="M3659 2785 c-64 -35 -194 -289 -286 -560 -72 -212 -173 -632 -173
-721 0 -62 21 -94 60 -94 34 0 51 21 79 101 66 183 225 417 327 480 42 26 54
17 54 -43 0 -79 -112 -382 -155 -418 -14 -11 -27 -11 -86 5 -38 10 -72 15 -76
12 -12 -13 20 -68 63 -106 75 -70 112 -64 179 27 84 115 134 242 180 459 18
90 11 113 -48 147 -64 38 -101 35 -146 -12 -76 -80 -143 -160 -203 -242 l-63
-85 -3 36 c-4 44 45 240 99 404 71 213 202 460 259 490 20 10 43 13 74 9 41
-6 46 -5 46 13 0 25 -55 78 -102 97 -45 19 -46 19 -79 1z"/>
<path d="M2387 2689 c-23 -25 -64 -86 -90 -137 -27 -51 -52 -90 -57 -87 -4 3
-22 34 -38 70 -58 123 -114 185 -169 185 -11 0 -39 -21 -63 -46 -25 -25 -64
-57 -87 -71 -38 -22 -52 -24 -120 -21 l-78 3 -3 -75 c-5 -115 15 -234 55 -335
19 -49 43 -98 52 -109 18 -21 72 -46 98 -46 15 1 14 4 -7 21 -106 86 -132 135
-133 249 -1 60 4 86 25 131 62 137 200 204 307 150 50 -26 56 -34 126 -170 33
-64 65 -116 70 -116 6 0 26 61 45 135 40 153 52 185 93 253 16 26 27 51 23 54
-3 4 -25 -14 -49 -38z"/>
<path d="M2660 2471 c-214 -70 -320 -275 -411 -796 -27 -152 -30 -193 -31
-385 -1 -207 10 -318 34 -363 9 -17 12 -18 25 -5 10 11 17 55 24 149 17 255
64 650 80 681 5 9 22 19 39 22 16 3 44 9 60 12 17 3 48 23 68 44 27 28 75 55
182 102 198 88 203 90 241 86 33 -3 34 -5 42 -58 5 -30 7 -171 4 -313 l-4
-258 28 27 c61 59 155 302 186 483 20 119 24 416 6 446 -10 16 -12 -8 -13
-132 0 -186 -41 -453 -69 -453 -7 0 -31 179 -31 233 0 22 4 27 26 27 25 0 26
2 19 38 -5 27 -18 47 -51 75 -27 24 -59 68 -85 118 -49 94 -116 172 -173 201
-44 23 -153 33 -196 19z m99 -51 c24 -11 71 -49 106 -83 93 -96 128 -184 88
-219 -29 -25 -121 -73 -218 -114 -49 -20 -147 -66 -216 -100 l-126 -63 9 57
c22 151 99 391 147 463 54 79 122 99 210 59z"/>
<path d="M5983 2373 c-22 -21 -46 -55 -53 -77 -23 -72 4 -197 60 -277 30 -42
40 -28 23 33 -8 29 -17 92 -20 139 -5 72 -2 92 15 132 51 116 185 69 228 -79
21 -74 14 -135 -26 -213 -33 -66 -24 -81 23 -37 42 39 70 105 75 177 5 79 -9
128 -51 176 -42 48 -82 63 -165 63 -66 0 -71 -2 -109 -37z"/>
<path d="M5555 2103 c-76 -40 -186 -174 -261 -320 -109 -213 -122 -332 -41
-371 61 -29 132 25 302 232 49 60 91 104 93 98 2 -6 -8 -62 -22 -125 -33 -145
-33 -172 -2 -193 43 -27 68 -15 103 51 34 62 65 139 77 189 7 28 6 28 -23 23
-42 -9 -41 4 9 157 22 67 40 133 40 145 0 56 -47 92 -85 67 -34 -23 -45 -20
-85 18 -44 43 -67 49 -105 29z m133 -112 c28 -17 -34 -114 -207 -321 -123
-147 -152 -173 -173 -152 -15 15 21 124 69 210 54 97 147 217 190 246 38 26
95 34 121 17z"/>
<path d="M3981 2076 c-48 -36 -70 -69 -71 -103 0 -26 8 -28 35 -10 54 37 58
33 51 -40 -10 -99 -44 -257 -72 -341 -30 -87 -33 -122 -10 -156 12 -19 25 -26
50 -26 29 0 44 12 127 103 52 56 126 144 164 195 95 128 99 126 60 -38 -67
-276 -171 -537 -276 -691 -70 -104 -174 -173 -259 -173 -36 0 -64 10 -125 43
-81 45 -129 63 -139 54 -3 -3 4 -23 16 -45 14 -25 50 -57 103 -93 l81 -55 97
0 c80 0 105 4 140 21 75 39 195 178 255 295 46 91 292 926 292 993 0 49 -34
91 -73 91 -19 0 -29 -11 -51 -57 -52 -114 -201 -343 -270 -418 l-45 -50 -1 35
c0 20 16 121 35 224 49 264 48 277 -29 275 -30 0 -53 -9 -85 -33z"/>
<path d="M1875 1910 c-4 -6 -17 -51 -31 -101 -44 -164 -171 -437 -294 -629
-36 -58 -70 -111 -75 -119 -16 -28 56 -2 103 36 101 82 181 226 237 423 34
120 85 350 85 384 0 18 -15 22 -25 6z"/>
<path d="M4745 1331 c-42 -25 -81 -73 -95 -116 -10 -30 -9 -40 4 -60 9 -14 25
-25 36 -25 16 0 19 5 14 29 -9 43 12 96 52 131 51 44 94 36 94 -17 0 -26 -58
-230 -91 -320 -30 -80 -43 -93 -96 -93 -47 0 -53 -10 -23 -40 49 -49 108 -15
167 96 96 183 127 390 63 424 -30 16 -92 12 -125 -9z"/>
<path d="M5358 1303 c-19 -22 -33 -63 -21 -63 13 0 83 60 83 71 0 16 -46 10
-62 -8z"/>
<path d="M5288 1171 c-34 -27 -81 -135 -86 -197 -4 -43 -1 -55 17 -73 32 -32
68 -27 112 18 22 21 39 46 39 55 0 10 -4 15 -8 12 -5 -3 -33 -22 -63 -41 -31
-21 -55 -32 -57 -26 -2 7 2 34 8 61 12 48 13 50 47 50 25 0 43 8 64 29 69 69
3 171 -73 112z m39 -85 c-6 -14 -47 -29 -47 -18 0 4 10 23 22 42 21 33 23 34
26 12 2 -13 1 -29 -1 -36z"/>
<path d="M5001 1141 c-70 -70 -127 -229 -90 -252 23 -14 51 0 107 54 l52 51 0
-47 c0 -56 20 -71 52 -39 17 16 23 41 30 122 9 103 6 136 -11 126 -5 -4 -34
-41 -64 -84 -53 -76 -114 -138 -125 -128 -3 3 3 27 13 53 12 32 39 68 79 106
47 46 57 60 45 68 -26 17 -49 9 -88 -30z"/>
<path d="M5463 1170 c-26 -11 -29 -28 -9 -44 13 -9 11 -22 -9 -86 -28 -85 -32
-140 -12 -140 20 0 38 24 95 121 75 127 106 144 84 46 -25 -106 -36 -177 -29
-183 13 -13 55 25 76 69 34 70 27 193 -13 219 -19 13 -25 9 -76 -38 l-49 -46
-3 44 c-3 46 -15 54 -55 38z"/>
</g>
</svg>
