<?xml version="1.0" standalone="no"?>
<!DOCTYPE svg PUBLIC "-//W3C//DTD SVG 20010904//EN"
  "http://www.w3.org/TR/2001/REC-SVG-20010904/DTD/svg10.dtd">
<svg version="1.0" xmlns="http://www.w3.org/2000/svg"
  width="950.000000pt" height="911.000000pt" viewBox="0 0 950.000000 911.000000"
  preserveAspectRatio="xMidYMid meet">

<g transform="translate(0.000000,911.000000) scale(0.100000,-0.100000)"
fill="#c72727" stroke="none">
<path d="M3285 8370 c-55 -10 -115 -19 -132 -19 -18 -1 -33 -6 -33 -12 0 -5
-4 -8 -10 -4 -13 8 -148 -28 -241 -64 -175 -68 -351 -166 -327 -184 9 -6 7 -7
-6 -3 -25 9 -99 -48 -220 -170 -104 -104 -128 -132 -120 -145 4 -8 3 -9 -4 -5
-15 9 -87 -99 -167 -249 -110 -205 -157 -368 -216 -745 -22 -138 -35 -197 -47
-204 -5 -3 -58 -10 -118 -16 -175 -18 -444 -85 -444 -111 0 -6 -4 -8 -8 -5
-10 6 -205 -92 -210 -105 -2 -5 -8 -9 -13 -9 -20 0 -166 -116 -244 -194 -81
-81 -185 -207 -185 -225 0 -5 -3 -11 -8 -13 -42 -18 -203 -384 -187 -426 2 -7
1 -11 -3 -8 -9 5 -44 -159 -63 -294 -18 -125 -15 -434 5 -555 22 -132 47 -235
57 -235 5 0 6 -6 3 -13 -4 -12 46 -162 63 -191 4 -6 8 -18 10 -26 4 -28 87
-189 95 -184 4 3 6 -1 3 -8 -5 -13 138 -236 200 -313 54 -66 189 -219 226
-255 120 -116 256 -223 272 -213 5 3 7 2 4 -4 -3 -5 7 -17 24 -27 16 -9 29
-14 29 -9 0 4 4 3 8 -3 4 -7 61 -43 127 -82 66 -38 131 -79 144 -90 28 -22 30
-5 -23 -247 -50 -227 -60 -339 -60 -625 1 -146 6 -296 12 -335 6 -38 14 -92
16 -120 15 -141 95 -403 165 -544 81 -160 248 -360 391 -467 78 -59 288 -167
312 -160 10 2 16 0 13 -4 -5 -9 8 -13 130 -44 89 -22 273 -49 285 -41 5 3 10
1 10 -4 0 -15 53 -14 185 3 146 18 285 47 285 58 0 5 4 7 9 3 5 -3 58 9 118
26 59 17 119 33 133 35 22 4 220 61 492 141 48 14 86 28 84 32 -2 3 6 6 17 7
21 0 217 41 247 52 36 12 151 17 365 17 238 0 316 -9 508 -56 43 -11 83 -17
90 -13 7 4 9 3 4 -1 -8 -10 132 -57 150 -50 6 2 13 0 15 -4 4 -10 238 -77 496
-141 108 -28 229 -59 267 -70 277 -77 635 -33 938 115 42 21 77 42 77 47 0 5
4 7 9 3 10 -5 111 67 201 145 78 67 268 310 243 310 -4 0 -3 4 3 8 28 19 126
258 158 387 59 238 81 455 73 739 -8 270 -18 345 -100 714 -16 75 -3 93 113
154 52 28 113 63 135 77 22 15 47 30 55 33 8 3 53 34 99 69 46 35 99 75 117
89 19 14 31 31 29 38 -3 7 0 10 6 7 13 -9 83 60 75 73 -3 5 2 9 10 8 16 -1
126 117 194 208 19 26 40 53 47 60 18 21 83 124 83 133 0 4 -5 1 -11 -7 -9
-13 -10 -13 -6 0 2 8 10 14 16 12 17 -3 191 360 196 408 0 3 3 10 7 15 16 26
87 296 113 430 17 90 21 481 6 531 -5 16 -19 72 -31 124 -71 316 -198 564
-394 770 -93 97 -222 204 -236 195 -6 -4 -9 -1 -8 5 5 20 -265 165 -290 155
-7 -2 -11 -1 -8 3 13 22 -262 92 -384 98 -118 7 -159 19 -164 47 -3 12 -7 63
-10 112 -21 332 -165 743 -345 986 -68 91 -77 101 -163 190 -131 136 -326 287
-351 272 -5 -3 -7 -2 -4 4 7 11 -175 100 -268 131 -84 28 -233 59 -350 72 -55
7 -116 14 -135 17 -54 7 -383 -52 -502 -91 -58 -19 -153 -57 -210 -85 -120
-58 -274 -154 -271 -170 2 -5 -3 -8 -11 -5 -8 3 -20 -4 -28 -15 -8 -12 -17
-19 -20 -16 -3 3 -59 -47 -124 -111 -65 -65 -125 -118 -132 -120 -6 -1 -10 2
-6 7 3 5 -2 9 -10 9 -9 0 -16 4 -16 8 0 5 -30 33 -67 63 -37 30 -77 63 -88 74
-86 80 -293 220 -405 272 -208 98 -295 124 -520 155 -203 28 -204 28 -315 8z
m102 -285 c135 -28 262 -86 393 -178 45 -31 214 -195 280 -272 124 -144 271
-400 329 -574 68 -201 94 -366 94 -586 -2 -348 -85 -677 -223 -881 -16 -24
-28 -50 -26 -57 1 -6 1 -8 -2 -4 -2 4 -34 -23 -70 -60 -71 -72 -135 -125 -164
-136 -10 -4 -18 -11 -18 -17 0 -5 -9 -10 -20 -10 -11 0 -20 -5 -20 -10 0 -6
-3 -9 -7 -8 -5 1 -28 -8 -53 -19 -248 -117 -539 -115 -791 5 -190 91 -442 314
-548 485 -12 20 -27 34 -33 31 -7 -5 -8 -2 -4 5 5 7 1 20 -8 30 -57 63 -177
337 -220 501 -115 440 -92 870 65 1191 22 44 39 82 39 85 0 7 132 183 162 214
140 151 355 257 578 284 56 7 193 -3 267 -19z m2911 15 c145 -15 263 -57 380
-135 30 -19 56 -35 58 -35 13 0 148 -136 187 -190 22 -30 44 -57 49 -58 4 -2
6 -7 3 -12 -3 -4 2 -13 10 -20 8 -7 15 -18 15 -25 0 -8 4 -15 8 -17 10 -4 57
-110 73 -165 6 -24 16 -40 22 -36 6 3 7 1 3 -5 -3 -6 5 -55 18 -109 40 -156
70 -352 68 -428 -6 -177 -50 -428 -107 -615 -14 -47 -27 -89 -29 -95 -3 -13
-22 -55 -52 -121 -13 -28 -24 -53 -24 -56 0 -3 -18 -36 -40 -72 -22 -36 -40
-68 -40 -71 0 -3 -32 -49 -72 -103 -116 -156 -280 -309 -432 -400 -64 -39
-211 -102 -236 -102 -6 0 -8 -5 -4 -12 4 -7 3 -8 -4 -4 -6 4 -51 -1 -99 -10
-224 -42 -495 16 -672 144 -90 65 -213 193 -266 277 -38 59 -97 190 -125 274
-98 300 -110 651 -34 976 82 353 244 649 488 890 172 170 325 262 516 308 158
39 194 42 338 27z m1930 -2095 c12 -1 25 -5 29 -8 3 -4 28 -10 55 -13 26 -4
48 -10 48 -15 0 -5 6 -9 13 -9 41 0 234 -131 286 -194 9 -11 31 -36 49 -56 17
-21 32 -42 32 -47 0 -6 11 -22 25 -37 13 -14 22 -26 19 -26 -3 0 3 -15 14 -34
28 -47 67 -165 89 -266 24 -115 25 -389 1 -506 -43 -205 -106 -370 -210 -547
-32 -55 -58 -103 -58 -108 0 -5 -4 -9 -8 -9 -4 0 -33 -35 -65 -77 -61 -84
-215 -239 -287 -290 -222 -157 -402 -232 -607 -253 -330 -35 -641 115 -800
385 -43 74 -89 190 -109 280 -29 125 -27 444 4 583 27 121 77 270 122 367 18
39 33 73 32 78 -1 4 2 7 7 7 5 0 15 15 22 33 35 85 188 286 294 387 159 152
356 280 492 320 24 7 40 17 36 23 -3 6 -2 8 3 4 5 -3 39 2 74 10 120 28 236
34 398 18z m-6663 -55 c44 -12 87 -23 95 -24 8 0 17 -3 20 -6 3 -3 41 -21 85
-40 109 -47 242 -134 343 -224 65 -58 152 -147 169 -173 8 -13 20 -20 26 -16
6 3 7 1 3 -5 -4 -7 -2 -12 3 -12 6 0 11 -6 11 -13 0 -7 13 -27 30 -45 16 -18
28 -34 27 -36 -1 -3 9 -19 23 -38 14 -18 37 -55 52 -83 15 -27 32 -49 38 -47
6 1 9 -2 6 -7 -3 -5 10 -44 29 -86 128 -280 180 -578 144 -832 -6 -43 -12 -87
-14 -98 -1 -11 -5 -27 -8 -35 -3 -8 -15 -42 -25 -75 -22 -67 -63 -157 -81
-179 -7 -8 -9 -21 -5 -27 4 -7 3 -9 -3 -6 -6 4 -14 0 -17 -9 -10 -27 -97 -127
-151 -173 -77 -66 -164 -115 -272 -151 -119 -40 -280 -51 -403 -29 -41 7 -79
14 -85 15 -5 0 -19 4 -30 9 -11 4 -49 19 -85 33 -36 14 -90 39 -120 55 -30 17
-68 38 -85 47 -53 28 -180 118 -231 165 -99 90 -160 156 -240 260 -31 41 -107
156 -109 165 -1 3 -12 25 -25 50 -108 202 -166 385 -191 600 -26 227 20 518
102 650 5 8 13 24 18 36 19 43 78 122 136 180 103 104 218 170 360 208 92 24
101 25 245 21 100 -2 156 -9 215 -25z m3240 -950 c124 -10 233 -27 320 -50
179 -49 387 -139 548 -237 49 -29 90 -53 92 -53 4 0 179 -118 265 -179 159
-112 339 -267 510 -441 148 -150 200 -207 200 -218 0 -15 36 -42 45 -35 4 5 5
3 2 -3 -4 -7 16 -40 44 -75 57 -71 124 -165 152 -213 10 -17 26 -37 35 -43 9
-7 13 -13 9 -13 -4 0 13 -31 37 -69 25 -38 54 -88 67 -112 12 -24 26 -47 31
-50 5 -3 9 -9 9 -13 -2 -10 31 -70 43 -78 6 -4 8 -8 3 -8 -4 0 4 -21 17 -47
249 -484 373 -1049 336 -1536 -14 -197 -41 -358 -77 -468 -15 -46 -27 -90 -26
-97 0 -7 -2 -11 -5 -8 -3 4 -20 -20 -38 -52 -40 -71 -112 -148 -181 -195 -29
-19 -49 -38 -45 -41 3 -4 -2 -4 -12 0 -11 4 -17 3 -14 -2 4 -5 -4 -10 -15 -11
-12 -1 -53 -11 -92 -22 -94 -27 -241 -27 -366 -2 -117 25 -178 40 -407 103
-101 27 -190 47 -198 44 -8 -3 -13 -2 -10 3 3 5 -22 16 -57 26 -34 9 -155 46
-269 81 -185 56 -367 102 -468 118 -181 29 -254 37 -400 46 -342 21 -736 -24
-1100 -124 -52 -15 -106 -31 -120 -36 -52 -18 -386 -124 -402 -127 -10 -1 -73
-18 -140 -37 -172 -49 -356 -93 -468 -112 -275 -47 -520 44 -652 243 -19 29
-38 50 -42 46 -4 -4 -4 0 0 10 3 10 1 17 -5 17 -6 0 -10 3 -9 8 1 4 -6 25 -16
47 -88 201 -125 661 -82 1009 38 312 131 669 231 891 60 132 141 293 177 353
21 34 38 65 38 68 0 3 39 64 88 135 48 72 92 137 97 146 6 9 18 25 28 35 10
10 15 24 11 30 -4 6 -3 8 3 5 5 -3 32 24 59 61 50 68 176 218 201 239 8 6 16
19 17 27 1 9 5 15 9 14 3 -2 54 44 114 102 117 114 182 174 256 234 26 21 44
43 40 49 -3 6 -1 7 5 3 11 -7 112 61 112 76 0 4 5 8 10 8 6 0 43 24 83 53 144
106 337 221 497 298 126 60 140 66 202 85 32 10 54 22 51 27 -3 6 -1 7 5 3 6
-4 37 1 69 10 32 10 63 19 68 20 98 19 144 26 215 31 47 3 86 6 87 7 7 6 65 5
178 -4z"/>
<path d="M4784 4411 c-54 -13 -127 -54 -172 -95 -52 -48 -85 -102 -106 -177
-13 -46 -24 -63 -60 -90 -48 -37 -101 -112 -91 -129 3 -5 2 -10 -3 -10 -10 0
-27 -53 -42 -129 -10 -52 4 -161 21 -161 4 0 10 -9 14 -19 3 -12 26 -26 55
-37 28 -10 50 -20 50 -24 0 -3 -10 -17 -22 -30 -13 -14 -52 -59 -88 -100 -36
-41 -75 -83 -87 -93 -12 -10 -41 -36 -65 -57 -24 -22 -90 -77 -148 -123 -186
-145 -297 -275 -305 -355 -1 -15 -6 -35 -10 -45 -4 -10 -5 -63 -2 -118 l5 -99
-33 0 c-49 0 -82 32 -95 93 -16 70 2 116 59 149 23 13 41 27 41 31 0 4 -12 19
-26 34 -22 21 -31 24 -64 19 -60 -9 -84 -24 -113 -69 -19 -29 -27 -54 -27 -86
0 -24 -5 -59 -12 -77 -20 -57 22 -118 121 -171 41 -22 54 -24 120 -19 64 5 79
3 115 -17 22 -12 43 -25 46 -28 11 -14 96 -52 121 -54 14 -1 32 -6 40 -10 7
-5 72 -9 144 -9 122 0 239 16 332 45 79 25 32 120 -67 135 -60 9 -80 20 -80
47 0 25 35 87 49 87 5 0 16 6 23 13 13 12 156 97 164 97 2 0 4 -61 4 -135 0
-114 3 -142 19 -173 35 -68 80 -94 159 -91 66 2 107 22 124 61 7 15 29 34 50
44 55 25 65 40 42 65 -10 11 -33 27 -51 34 -53 23 -67 62 -70 206 -3 129 6
169 42 199 7 6 11 19 8 27 -4 10 -2 14 5 9 6 -3 13 3 17 15 4 11 20 33 36 49
31 29 51 90 63 185 7 55 -27 210 -60 274 -36 71 -55 216 -32 239 7 7 9 12 4
12 -4 0 -1 6 6 13 7 8 27 30 44 49 33 37 82 74 89 67 2 -3 0 -187 -4 -409 -6
-266 -5 -411 1 -424 6 -10 7 -40 4 -67 -6 -48 4 -70 21 -46 5 6 11 100 12 207
1 107 6 326 9 485 l7 290 28 47 c28 48 64 81 78 72 4 -2 13 -30 20 -62 13 -62
7 -142 -31 -427 -27 -202 -37 -327 -51 -604 -10 -213 -9 -238 6 -271 50 -110
221 -51 218 75 -1 34 -57 144 -112 220 -31 43 -36 58 -36 107 0 31 -3 60 -7
64 -5 4 -8 26 -8 50 0 49 32 364 56 541 19 147 13 279 -16 333 -9 17 -6 25 15
48 32 34 39 61 31 118 -7 56 -43 141 -63 148 -8 3 -32 -3 -54 -14 -67 -35
-127 -41 -170 -19 -21 10 -41 23 -44 29 -3 6 -24 19 -45 30 -40 21 -107 25
-166 11z m470 -1457 c3 -8 11 -12 17 -8 7 4 9 3 5 -4 -3 -6 12 -41 34 -77 60
-98 65 -151 18 -195 -26 -24 -80 -27 -98 -4 -16 18 -19 159 -7 247 8 57 19 71
31 41z"/>
<path d="M3833 2153 c-4 -10 -22 -31 -40 -47 -18 -16 -33 -33 -33 -38 0 -4 26
-8 58 -8 55 0 59 2 117 55 l60 54 -78 1 c-65 0 -79 -3 -84 -17z"/>
<path d="M3065 2003 c-27 -2 -60 -6 -72 -8 l-23 -5 0 -318 c0 -174 4 -322 8
-329 11 -18 177 -27 252 -13 169 30 253 112 269 262 25 233 -69 375 -271 408
-34 5 -74 9 -88 8 -14 -1 -47 -3 -75 -5z m227 -183 c14 -16 28 -27 30 -25 6 6
9 -24 12 -138 2 -59 1 -105 -2 -103 -2 3 -12 -9 -22 -26 -23 -44 -74 -69 -133
-66 l-48 3 0 200 c0 181 2 200 18 206 29 10 116 -21 145 -51z"/>
<path d="M3790 2001 c-96 -20 -176 -97 -207 -199 -25 -80 -24 -220 2 -291 53
-145 192 -216 345 -177 65 17 94 32 85 46 -3 4 2 7 11 6 20 -1 87 92 80 111
-3 8 -2 12 3 9 15 -10 34 130 27 203 -15 172 -111 281 -256 294 -30 3 -71 2
-90 -2z m116 -143 c43 -20 64 -83 64 -196 0 -73 -5 -107 -19 -139 -23 -50 -45
-63 -106 -63 -81 0 -115 59 -115 200 0 146 36 207 122 209 15 1 39 -4 54 -11z"/>
<path d="M4290 2001 l-65 -6 -3 -327 -2 -328 23 -5 c13 -4 46 -5 73 -3 l49 3
5 110 5 110 53 -3 c173 -12 286 142 227 309 -40 113 -163 160 -365 140z m199
-157 c29 -37 28 -105 -1 -138 -17 -18 -35 -26 -68 -28 l-45 -3 -3 98 -3 97 50
0 c42 0 53 -4 70 -26z"/>
<path d="M2153 1993 c-9 -3 -13 -28 -13 -74 0 -79 3 -82 100 -77 l55 3 3 69
c2 49 -1 72 -10 77 -14 9 -115 11 -135 2z"/>
<path d="M2557 1993 c-2 -4 -35 -107 -72 -228 -37 -121 -80 -260 -96 -310 -41
-127 -42 -125 35 -125 73 0 78 4 96 76 l13 51 86 -1 c47 0 92 2 100 4 9 4 18
-13 28 -55 9 -33 21 -63 27 -67 17 -12 146 -9 146 2 0 27 -54 198 -62 194 -4
-3 -6 1 -3 8 3 7 -26 112 -64 233 l-69 220 -80 3 c-44 1 -82 -1 -85 -5z m104
-250 c19 -64 27 -103 32 -148 2 -17 -5 -20 -48 -23 -78 -4 -80 -1 -50 119 40
159 37 156 66 52z"/>
<path d="M5314 1992 c-12 -7 -204 -616 -204 -645 0 -14 10 -17 56 -17 76 0 90
10 105 75 l12 55 61 -6 c34 -3 78 -2 98 4 31 8 38 7 44 -6 4 -10 7 -20 6 -23
0 -3 5 -26 12 -50 l13 -44 77 -3 c65 -2 76 -1 76 14 0 9 -23 89 -51 178 -93
293 -110 350 -126 406 -8 30 -20 58 -26 62 -7 4 -41 8 -77 8 -36 0 -70 -4 -76
-8z m107 -293 c22 -87 26 -115 16 -121 -17 -11 -105 -10 -112 2 -3 5 3 43 14
82 11 40 25 93 31 117 6 23 14 41 16 38 3 -3 19 -56 35 -118z"/>
<path d="M5755 1990 c-7 -12 -34 -641 -28 -652 7 -13 118 -9 131 4 8 8 12 66
12 197 0 105 4 181 9 176 4 -6 16 -32 26 -60 19 -57 24 -69 56 -142 21 -48 25
-53 55 -53 48 0 81 16 89 42 8 28 54 140 76 187 16 34 17 32 24 -145 3 -98 9
-187 11 -196 4 -15 17 -18 70 -18 47 0 66 4 70 14 7 19 -22 631 -31 645 -7 12
-115 15 -130 3 -14 -10 -30 -44 -61 -127 -14 -38 -36 -92 -48 -120 -13 -27
-26 -60 -30 -72 -8 -25 -31 -22 -33 5 -3 29 -104 286 -121 305 -11 13 -31 17
-78 17 -35 0 -66 -5 -69 -10z"/>
<path d="M6925 1991 c-3 -6 -3 -101 1 -211 8 -227 5 -220 88 -220 39 0 46 3
51 23 2 12 6 110 7 217 l3 195 -72 3 c-41 2 -74 -1 -78 -7z"/>
<path d="M4700 1925 l0 -65 80 0 80 0 0 -253 c0 -183 3 -256 12 -265 19 -19
134 -16 142 4 3 9 6 128 6 265 l0 249 80 0 80 0 0 65 0 65 -240 0 -240 0 0
-65z"/>
<path d="M6452 1663 l3 -328 190 0 190 0 9 38 c6 23 6 48 0 65 -9 27 -10 27
-122 30 l-112 3 0 69 0 70 90 0 90 0 0 70 0 70 -90 0 -90 0 0 55 0 55 115 0
115 0 0 65 0 65 -195 0 -195 0 2 -327z"/>
<path d="M2179 1763 l-26 -4 -7 -206 c-4 -119 -3 -210 2 -215 5 -5 40 -8 78
-6 l69 3 -3 205 c-2 113 -7 209 -11 213 -10 10 -69 16 -102 10z"/>
<path d="M6933 1483 c-9 -3 -13 -28 -13 -73 0 -77 3 -80 80 -80 77 0 80 3 80
80 0 53 -4 69 -16 74 -18 7 -113 7 -131 -1z"/>
</g>
</svg>
