<?xml version="1.0" standalone="no"?>
<!DOCTYPE svg PUBLIC "-//W3C//DTD SVG 20010904//EN"
 "http://www.w3.org/TR/2001/REC-SVG-20010904/DTD/svg10.dtd">
<svg version="1.0" xmlns="http://www.w3.org/2000/svg"
 width="8334.000000pt" height="8334.000000pt" viewBox="0 0 8334.000000 8334.000000"
 preserveAspectRatio="xMidYMid meet">

<g transform="translate(0.000000,8334.000000) scale(0.100000,-0.100000)"
fill="#000" stroke="none">
<path d="M21765 65600 c-1038 -92 -1972 -470 -2775 -1124 -604 -492 -1098
-1138 -1410 -1846 -370 -836 -506 -1775 -390 -2690 228 -1796 1445 -3357 3135
-4023 595 -234 1206 -348 1860 -348 454 0 870 55 1297 170 l147 40 488 -231
c268 -126 562 -265 653 -308 91 -43 289 -136 440 -207 151 -71 293 -136 315
-144 22 -7 76 -13 120 -13 105 1 177 29 250 96 122 111 153 220 130 456 -4 45
-44 650 -90 1387 -3 50 -8 110 -10 135 -2 25 -7 97 -11 161 l-6 117 107 127
c601 714 982 1554 1125 2480 62 407 72 926 25 1330 -119 1024 -543 1972 -1232
2755 -136 154 -380 393 -533 521 -767 642 -1671 1027 -2692 1145 -157 18 -789
27 -943 14z m620 -780 c480 -28 902 -119 1340 -291 441 -172 860 -428 1230
-749 155 -135 388 -379 523 -549 903 -1131 1167 -2619 708 -3993 -187 -562
-496 -1082 -905 -1522 -69 -74 -112 -130 -134 -175 l-32 -66 2 -160 c1 -88 20
-434 43 -770 22 -335 40 -615 40 -622 0 -7 -59 16 -137 53 -76 36 -158 75
-183 86 -25 12 -114 54 -199 94 -84 41 -155 74 -156 74 -1 0 -68 31 -149 70
-422 201 -599 281 -647 291 -73 16 -133 7 -288 -40 -264 -81 -494 -131 -776
-168 -113 -14 -209 -18 -490 -18 -374 0 -477 8 -765 61 -1180 217 -2186 902
-2832 1929 -277 440 -489 994 -577 1505 -47 272 -56 391 -56 740 0 354 11 480
66 775 195 1050 781 1980 1658 2629 778 576 1761 871 2716 816z"/>
<path d="M21146 62149 c-147 -19 -309 -82 -421 -163 -134 -97 -266 -263 -330
-414 -61 -146 -79 -239 -79 -407 0 -171 17 -260 77 -402 74 -174 91 -194 874
-974 681 -679 731 -727 776 -739 61 -16 152 -8 203 18 53 28 1469 1449 1516
1522 201 312 230 684 79 1006 -301 641 -1087 750 -1649 229 l-73 -68 -77 75
c-187 181 -415 289 -665 317 -108 12 -133 12 -231 0z"/>
<path d="M55745 61089 c-678 -52 -1347 -241 -1967 -555 l-127 -65 -173 65
c-725 269 -1498 440 -2308 510 -608 53 -1338 46 -1985 -19 -1375 -139 -2892
-544 -4370 -1169 l-180 -76 -395 -71 -395 -71 -255 13 c-534 26 -1377 15
-1960 -27 -2630 -185 -4802 -994 -6391 -2381 l-106 -92 -59 9 c-261 41 -769
61 -1059 41 -539 -38 -1029 -146 -1500 -332 -160 -63 -479 -224 -639 -323
-752 -465 -1464 -1207 -2132 -2221 -672 -1020 -1204 -2203 -1595 -3540 -288
-986 -455 -1485 -714 -2140 -368 -931 -700 -1614 -1247 -2565 -723 -1258
-1093 -2342 -1169 -3425 -15 -215 -6 -716 16 -915 123 -1115 542 -2145 1412
-3468 84 -128 153 -236 152 -240 0 -4 -76 -65 -170 -136 -506 -385 -952 -777
-1450 -1275 -532 -533 -915 -973 -1328 -1526 -78 -104 -152 -203 -165 -220
l-23 -30 -55 43 c-75 58 -231 220 -305 317 -87 116 -200 290 -283 440 -67 120
-240 459 -288 565 -11 25 -37 81 -57 125 -20 44 -71 157 -112 250 -41 94 -118
267 -170 385 -349 789 -581 1091 -907 1180 -96 27 -242 29 -331 5 -183 -47
-355 -181 -518 -400 -854 -1149 -1036 -2637 -532 -4350 269 -913 766 -1952
1357 -2838 l99 -148 -45 -172 c-257 -969 -422 -1971 -496 -2997 -18 -254 -19
-273 -25 -395 -3 -66 -8 -158 -11 -205 -10 -152 -4 -10828 7 -10925 95 -886
783 -1566 1674 -1655 78 -8 1046 -10 3345 -8 l3235 3 90 22 c211 49 369 124
530 248 317 246 488 634 454 1031 -17 192 -99 402 -231 589 -127 181 -386 413
-644 579 l-92 59 130 126 c140 135 296 307 393 434 l59 77 472 0 471 0 7 -77
c4 -43 13 -139 21 -213 17 -155 76 -725 135 -1304 22 -219 47 -433 56 -475 37
-180 131 -394 236 -536 120 -161 320 -330 497 -420 88 -44 221 -90 339 -117
l97 -23 4980 -3 c4475 -2 4991 -1 5088 13 623 91 1070 648 1016 1268 -24 280
-157 598 -355 853 -118 151 -314 317 -490 415 -47 26 -74 46 -74 57 1 9 18
139 38 287 l38 270 2239 5 c1232 3 2247 8 2255 12 8 3 67 9 130 13 776 42
1897 210 2830 425 68 16 125 28 127 27 1 -1 27 -137 57 -302 89 -484 284
-1554 321 -1760 19 -104 46 -230 60 -278 172 -594 693 -1043 1308 -1126 54 -8
867 -11 2587 -11 2238 0 2517 2 2591 16 486 92 872 449 978 906 45 192 52 466
17 660 -89 486 -429 903 -946 1162 -69 34 -149 72 -177 83 -29 12 -53 28 -53
35 0 8 20 203 45 434 25 230 84 775 131 1209 46 435 103 957 125 1160 21 204
44 413 49 465 10 93 56 517 105 972 14 124 25 234 25 244 0 9 42 60 93 113
989 1019 1813 2310 2362 3701 441 1117 732 2366 854 3670 55 582 68 894 68
1600 0 692 -9 941 -62 1615 -20 253 -31 317 -61 380 l-26 52 86 137 c657 1038
1064 2214 1190 3432 l13 130 85 140 c131 215 279 485 411 747 l119 238 27 -18
c14 -9 91 -56 171 -103 880 -526 1814 -834 2825 -934 229 -23 624 -39 773 -32
383 18 700 154 957 411 157 157 262 325 330 528 45 133 62 237 76 455 30 458
-47 1096 -236 1962 -104 478 -119 609 -119 1035 -1 354 9 480 60 755 47 257
67 323 399 1370 477 1502 673 2184 839 2910 347 1521 363 2705 51 3785 -193
666 -511 1290 -970 1900 -249 332 -456 568 -799 910 -284 284 -438 423 -816
739 -488 407 -799 687 -1179 1061 -694 683 -1354 1443 -1959 2255 -434 582
-499 667 -642 846 -347 433 -611 727 -1029 1144 -588 588 -1101 1015 -1710
1425 -995 668 -1898 1038 -2781 1140 -162 19 -598 27 -765 14z m-4970 -793
c17 -3 82 -7 145 -11 145 -8 454 -40 630 -66 1841 -268 3418 -1113 4709 -2524
303 -331 431 -496 635 -818 516 -816 876 -1799 1020 -2787 62 -424 80 -732 73
-1205 -8 -477 -25 -661 -117 -1240 -202 -1270 -291 -2442 -277 -3635 7 -495
13 -669 42 -1110 90 -1365 343 -2712 735 -3915 55 -170 172 -507 188 -545 6
-14 34 -83 61 -155 180 -473 434 -1021 677 -1465 610 -1115 1352 -2035 2239
-2776 l49 -41 -29 -64 c-15 -35 -60 -129 -100 -209 -429 -869 -885 -1539
-1545 -2273 -94 -104 -509 -521 -625 -628 -2070 -1901 -5191 -3261 -9626
-4193 -590 -124 -2100 -307 -3179 -386 -1163 -84 -2315 -96 -3310 -34 -2614
161 -4717 828 -6415 2034 -378 269 -850 668 -1162 982 l-132 133 31 50 c75
120 275 511 373 730 503 1122 793 2388 864 3770 48 921 -5 1897 -155 2880
-284 1852 -910 3768 -1836 5620 -234 467 -333 653 -562 1060 -598 1060 -898
2025 -998 3210 -16 195 -16 854 0 1045 19 217 21 242 42 405 48 368 89 541
223 940 330 978 768 1810 1344 2549 320 412 773 874 1183 1207 1304 1061 2972
1712 4995 1948 210 25 581 58 735 66 63 4 129 8 145 10 207 27 1378 27 1935
-1 l125 -6 479 86 479 87 161 68 c1519 649 2989 1049 4305 1170 295 28 326 30
526 37 99 4 182 8 184 10 6 5 701 -4 736 -10z m5720 -10 c537 -72 1126 -284
1735 -624 1263 -705 2481 -1820 3515 -3217 588 -794 904 -1193 1348 -1698 709
-807 1406 -1482 2253 -2182 950 -786 1609 -1569 2004 -2380 237 -489 383 -988
451 -1550 40 -335 37 -941 -7 -1350 -99 -920 -332 -1848 -961 -3835 -102 -322
-230 -727 -285 -900 -153 -485 -212 -733 -257 -1082 -55 -418 -55 -836 -1
-1258 24 -190 44 -300 109 -595 170 -779 242 -1372 213 -1757 -7 -96 -19 -179
-32 -219 -34 -113 -120 -227 -224 -298 -49 -34 -155 -86 -161 -79 -2 2 7 26
20 53 154 313 94 1218 -150 2262 -86 369 -116 622 -120 1033 -4 320 4 450 40
685 48 309 86 454 266 1010 236 727 352 1085 394 1215 271 835 509 1662 635
2213 278 1215 327 2173 156 3047 -179 914 -616 1749 -1352 2590 -282 322 -773
785 -1154 1090 -119 96 -430 353 -500 414 -25 23 -62 55 -82 71 -38 33 -123
110 -412 375 -312 286 -751 731 -1081 1095 -59 66 -129 143 -154 170 -26 28
-73 82 -106 120 -33 39 -63 72 -66 75 -19 17 -351 417 -485 585 -207 259 -324
410 -524 680 -486 652 -852 1079 -1384 1610 -375 375 -616 591 -976 876 -1153
913 -2265 1451 -3275 1585 -163 21 -530 29 -730 15 -167 -12 -346 -33 -395
-47 -14 -4 -22 -4 -19 -1 3 4 45 18 95 33 342 100 560 144 896 179 168 17 606
12 763 -9z m-22300 -3873 c-71 -10 -331 -79 -486 -129 -453 -147 -780 -320
-1194 -630 -708 -530 -1444 -1415 -2038 -2451 -157 -273 -172 -303 -323 -603
-363 -728 -625 -1406 -899 -2330 -297 -1000 -581 -1781 -951 -2606 -122 -275
-310 -669 -401 -844 -239 -458 -334 -628 -583 -1050 -497 -842 -820 -1589
-995 -2305 -115 -470 -157 -811 -158 -1265 -1 -281 2 -347 29 -575 109 -932
487 -1867 1201 -2965 388 -597 809 -1166 1688 -2280 136 -173 278 -353 314
-399 36 -46 122 -154 190 -240 361 -453 516 -687 686 -1035 123 -251 239 -573
315 -871 44 -174 78 -362 120 -670 61 -438 111 -708 195 -1050 126 -512 280
-877 436 -1034 l44 -44 -75 6 c-212 15 -388 130 -484 317 -187 362 -325 913
-456 1819 -54 379 -87 552 -150 782 -152 559 -414 1112 -744 1573 -56 77 -297
393 -537 701 -737 948 -1055 1365 -1345 1765 -815 1122 -1277 1945 -1544 2750
-441 1331 -314 2631 405 4150 112 237 255 505 433 815 211 366 214 373 335
597 99 183 374 726 437 863 15 33 56 121 90 195 425 923 771 1871 1110 3041
387 1335 838 2371 1462 3357 647 1021 1398 1799 2123 2200 427 236 1017 401
1581 441 117 9 221 11 169 4z m-6915 -19311 c216 -291 500 -662 1021 -1332
437 -563 525 -680 606 -800 285 -428 492 -916 603 -1424 16 -72 50 -275 75
-451 142 -983 286 -1562 506 -2033 166 -356 460 -621 815 -737 156 -51 266
-68 439 -69 247 0 371 30 735 176 805 325 1464 742 2105 1332 277 255 605 619
788 872 l37 51 50 -46 49 -46 -6 -86 c-7 -105 4 -142 93 -322 438 -878 1275
-1899 2261 -2754 834 -723 1768 -1341 2870 -1899 187 -95 412 -217 500 -270
87 -53 178 -109 203 -124 159 -95 732 -467 985 -638 1509 -1022 2756 -2017
3862 -3081 199 -191 560 -556 658 -665 6 -6 57 -63 115 -126 58 -63 177 -196
265 -295 207 -234 650 -677 838 -837 885 -756 1645 -1003 2443 -793 516 135
1034 464 1744 1103 143 130 485 451 725 683 66 64 215 205 330 315 613 582
884 872 1298 1391 372 467 664 871 1062 1473 757 1142 1548 2532 2271 3990
135 272 249 502 253 510 5 8 73 64 152 124 571 432 1100 914 1494 1359 l130
148 7 -33 c3 -18 14 -213 23 -433 33 -747 9 -1578 -66 -2305 -98 -957 -296
-1897 -579 -2750 -661 -1996 -1812 -3663 -3462 -5016 -1124 -922 -2499 -1686
-4028 -2237 -419 -151 -898 -302 -1270 -401 -96 -26 -215 -58 -265 -71 -49
-14 -186 -48 -303 -75 -770 -182 -1555 -315 -2297 -390 -566 -57 -411 -54
-2793 -57 l-2203 -4 6 33 c3 18 46 328 95 688 50 360 95 687 101 727 18 116 8
220 -29 295 -123 251 -451 304 -641 103 -53 -56 -83 -107 -99 -170 -6 -22 -41
-256 -77 -520 -36 -264 -72 -525 -80 -580 -8 -55 -71 -509 -140 -1010 -69
-500 -143 -1038 -165 -1194 -22 -156 -38 -286 -37 -288 2 -2 94 -30 205 -63
297 -88 405 -143 540 -274 119 -115 204 -263 248 -436 45 -178 -42 -357 -216
-443 l-65 -32 -2976 -3 -2976 -2 -7 152 c-3 84 -51 1231 -106 2548 -55 1317
-104 2439 -109 2492 -13 132 -44 200 -127 277 -86 81 -150 105 -269 105 -128
-1 -189 -26 -276 -114 -79 -80 -108 -146 -116 -260 -2 -41 14 -506 36 -1032
23 -527 41 -967 41 -978 0 -20 -3 -20 -2481 -20 -1981 0 -2480 3 -2476 13 3 6
26 64 52 127 350 848 419 1804 204 2850 -46 221 -116 489 -145 548 -73 151
-256 244 -417 212 -92 -17 -141 -43 -207 -106 -68 -65 -103 -129 -120 -222
-13 -73 -11 -84 45 -312 122 -488 170 -852 169 -1275 -1 -270 -11 -405 -49
-641 -143 -887 -622 -1681 -1332 -2207 -113 -83 -209 -139 -635 -368 -158 -85
-288 -156 -288 -159 0 -3 51 -28 113 -54 462 -199 753 -328 878 -390 447 -224
740 -469 814 -681 25 -71 23 -167 -4 -238 -28 -71 -112 -165 -184 -206 -117
-66 172 -61 -3378 -61 -2829 0 -3226 2 -3296 15 -429 81 -748 396 -850 840
-15 64 -17 524 -22 5245 -4 2846 -3 5315 1 5485 26 1051 151 2089 369 3075
484 2181 1434 4102 2839 5740 407 474 915 986 1399 1409 302 263 861 712 886
710 5 0 102 -125 215 -277z m-6115 156 c60 -93 217 -410 322 -648 228 -518
283 -640 365 -815 361 -766 724 -1272 1137 -1585 l34 -26 -45 -69 c-308 -482
-728 -1279 -953 -1810 -120 -283 -291 -714 -330 -833 -9 -30 -21 -50 -25 -45
-36 37 -332 583 -456 840 -434 898 -680 1698 -766 2488 -17 161 -17 754 0 895
78 630 261 1118 597 1595 33 47 63 85 67 85 3 0 27 -33 53 -72z m15860 -6131
c1172 -695 2535 -1187 4042 -1458 100 -18 181 -34 180 -35 -1 -1 -92 2 -202 7
-1091 50 -2312 361 -3517 896 l-146 65 -99 101 c-133 138 -280 299 -393 432
-51 61 -103 121 -114 134 -14 15 8 5 64 -29 47 -30 130 -80 185 -113z m13950
-2382 c164 -43 379 -211 480 -375 84 -137 123 -329 95 -465 -16 -77 -70 -196
-116 -252 -75 -91 -186 -140 -300 -130 -189 15 -375 202 -430 432 -9 39 -23
92 -31 118 -8 30 -16 123 -20 245 -6 215 2 270 53 358 45 78 140 102 269 69z
m-773 -181 c92 -64 166 -209 233 -454 42 -154 55 -227 55 -302 0 -130 -61
-303 -138 -389 -22 -25 -69 -61 -104 -80 -58 -32 -69 -34 -153 -34 -82 0 -97
3 -160 34 -122 59 -250 212 -294 351 -62 198 -10 464 132 675 56 83 153 176
218 209 73 37 150 33 211 -10z m1925 -630 c161 -80 303 -355 303 -587 0 -169
-49 -286 -170 -408 -91 -92 -150 -119 -263 -119 -88 0 -149 26 -216 92 -77 76
-131 215 -131 339 0 194 102 486 215 615 81 94 167 116 262 68z m-2709 -552
c67 -26 132 -72 224 -160 128 -122 219 -260 269 -405 22 -64 22 -74 12 -166
-6 -54 -20 -119 -31 -143 -27 -61 -80 -119 -139 -148 -42 -22 -61 -25 -154
-25 -105 0 -106 0 -194 44 -154 76 -265 217 -311 396 -25 97 -24 286 1 375 60
213 168 290 323 232z m1637 -327 c111 -29 170 -70 320 -221 155 -156 192 -184
334 -255 200 -99 320 -224 372 -389 87 -273 -84 -549 -401 -647 -47 -15 -88
-31 -92 -36 -4 -7 -83 -8 -220 -4 -266 8 -302 2 -482 -87 -178 -88 -258 -110
-411 -111 -71 0 -142 6 -175 14 -246 62 -390 234 -390 465 0 152 40 254 172
441 115 163 167 257 229 410 60 151 100 216 173 282 110 100 248 152 411 152
60 1 125 -5 160 -14z m5095 -6985 c-39 -360 -82 -758 -95 -885 -14 -126 -45
-417 -70 -645 -24 -228 -65 -606 -90 -840 -25 -234 -57 -528 -71 -655 -15
-128 -24 -257 -21 -292 9 -120 92 -250 197 -307 28 -15 110 -43 183 -62 450
-119 744 -362 828 -684 18 -70 20 -103 17 -219 -6 -176 -24 -227 -118 -322
-72 -73 -141 -111 -235 -129 -44 -8 -704 -10 -2510 -8 l-2450 3 -73 23 c-254
79 -453 263 -539 499 -13 37 -58 251 -99 477 -41 226 -95 521 -120 656 -25
135 -52 283 -60 330 -23 127 -122 670 -145 789 -10 57 -18 105 -17 107 2 1
122 39 268 83 579 174 1219 403 1680 601 36 15 110 47 165 70 355 150 956 445
1325 650 588 327 1124 675 1630 1058 188 143 465 366 477 384 6 9 9 7 11 -7 1
-11 -29 -315 -68 -675z m-20888 -3950 c26 -608 47 -1140 47 -1182 l1 -78
-1573 0 c-1385 0 -1580 2 -1632 15 -193 51 -357 206 -415 393 -13 42 -34 206
-65 500 -24 240 -65 635 -90 877 -26 242 -49 473 -52 513 l-6 72 1869 -2 1869
-3 47 -1105z"/>
<path d="M44470 58180 c-24 -24 -24 -37 -5 -267 52 -604 188 -1576 331 -2368
207 -1147 421 -2169 610 -2915 47 -184 71 -261 86 -277 29 -31 72 -30 105 3
30 30 30 28 -13 409 -182 1635 -581 3862 -912 5095 -74 275 -82 300 -103 321
-25 25 -74 24 -99 -1z"/>
<path d="M53297 51380 c-1015 -79 -2048 -762 -2679 -1770 -245 -393 -394 -749
-542 -1301 -54 -201 -18 -342 108 -428 172 -117 401 -55 491 134 24 53 31 58
153 130 177 106 456 242 653 319 666 261 1281 328 2138 235 201 -22 223 -19
261 29 28 34 27 101 -2 137 -60 77 -347 226 -608 316 -327 113 -617 155 -1014
146 -309 -7 -532 -37 -816 -111 -52 -13 -96 -23 -97 -22 -2 2 31 51 72 110
230 329 533 655 830 893 360 289 967 639 1560 897 72 31 140 68 153 82 46 52
19 141 -51 163 -111 36 -413 56 -610 41z"/>
<path d="M40365 50713 c-941 -122 -1751 -1056 -2005 -2313 -63 -314 -74 -439
-75 -825 0 -385 9 -495 66 -780 199 -1004 766 -1768 1490 -2009 224 -75 476
-102 699 -77 1018 119 1881 1210 2060 2605 142 1106 -157 2186 -785 2835 -123
127 -218 207 -350 294 -214 141 -456 233 -698 266 -73 10 -335 13 -402 4z
m581 -742 c278 -53 537 -323 667 -697 60 -173 72 -247 72 -454 -1 -170 -3
-193 -28 -284 -40 -145 -96 -246 -186 -337 -113 -112 -225 -158 -365 -146
-344 29 -662 392 -771 878 -22 99 -31 345 -16 451 29 200 125 394 242 488 50
40 141 86 194 99 54 12 132 13 191 2z m-1246 -3542 c126 -67 223 -185 282
-341 29 -76 32 -94 32 -203 1 -106 -2 -126 -23 -173 -29 -64 -98 -128 -154
-143 -156 -42 -352 89 -460 306 -120 242 -73 520 98 584 56 20 155 8 225 -30z"/>
<path d="M47345 47130 c-102 -14 -2144 -380 -2240 -402 -417 -96 -813 -354
-1077 -700 -157 -206 -263 -425 -330 -677 -26 -102 -31 -138 -35 -291 -4 -135
-2 -197 11 -270 73 -422 304 -764 660 -975 50 -29 215 -108 366 -173 412 -180
1026 -446 1100 -477 111 -47 251 -92 370 -119 105 -23 165 -32 375 -54 l70 -7
37 -200 c20 -110 71 -391 113 -625 41 -234 101 -567 133 -740 55 -306 57 -320
56 -485 0 -155 -3 -178 -27 -260 -55 -181 -155 -356 -279 -486 -78 -81 -140
-132 -293 -241 -66 -46 -417 -296 -780 -555 -1124 -800 -1110 -790 -1350 -910
-452 -227 -879 -337 -1356 -350 -839 -23 -1624 273 -2170 819 -478 479 -752
1136 -776 1863 -12 362 33 720 138 1094 62 222 177 529 255 683 33 64 31 102
-5 139 -32 31 -64 36 -106 17 -59 -26 -287 -431 -414 -734 -125 -298 -210
-630 -253 -989 -18 -151 -15 -563 6 -720 40 -307 106 -556 223 -835 216 -517
622 -1000 1113 -1324 221 -146 377 -228 615 -324 328 -132 694 -218 1073 -252
175 -16 594 -8 762 15 296 40 604 117 862 216 73 28 140 53 148 55 9 3 54 -29
110 -79 316 -278 784 -630 1106 -830 l142 -88 12 -62 c44 -224 177 -564 305
-777 337 -561 881 -936 1530 -1054 276 -51 660 -53 915 -5 419 79 827 263
1150 519 97 77 293 276 362 365 222 291 356 623 403 995 21 161 16 531 -9 695
l-15 100 73 90 c184 227 404 543 581 835 48 80 96 157 105 171 10 14 59 100
110 192 l92 167 169 0 c369 0 786 71 1149 195 177 61 272 101 438 184 874 436
1492 1130 1762 1976 112 352 155 708 132 1078 -19 292 -69 540 -162 812 -136
393 -363 792 -629 1105 -183 215 -596 594 -718 658 -68 37 -154 -27 -136 -100
4 -13 52 -70 107 -128 391 -407 670 -822 849 -1260 163 -403 231 -737 230
-1140 0 -744 -278 -1388 -825 -1915 -374 -361 -886 -643 -1393 -769 -263 -66
-482 -91 -780 -91 -369 1 -627 40 -1055 160 -47 13 -328 90 -625 170 -1198
325 -1413 385 -1494 419 -306 130 -540 372 -640 665 -12 35 -44 188 -72 340
-27 152 -65 359 -84 461 -31 166 -75 414 -178 1005 l-33 190 81 31 c295 115
577 309 806 555 58 63 251 272 429 464 178 193 347 375 376 405 182 195 281
361 345 580 52 175 65 403 34 587 -53 314 -226 619 -500 882 -299 286 -666
462 -1074 516 -112 15 -376 18 -476 5z m110 -651 c354 -49 239 -208 -275 -379
-360 -120 -911 -228 -1333 -261 -185 -14 -532 -7 -602 14 -109 31 -144 68
-114 123 91 170 971 426 1699 493 63 6 131 13 150 14 86 9 406 6 475 -4z
m1015 -7789 c448 -38 818 -186 1137 -454 160 -134 167 -144 207 -286 125 -452
152 -812 85 -1178 -27 -154 -58 -244 -134 -397 -164 -331 -435 -587 -819 -776
-328 -161 -647 -229 -1016 -216 -787 28 -1374 444 -1669 1185 -67 167 -129
409 -147 569 l-6 62 67 127 c89 171 205 346 313 474 287 342 634 596 1020 747
63 24 115 43 117 41 2 -2 26 -86 55 -188 83 -293 229 -809 251 -881 16 -56 24
-69 49 -79 43 -18 79 -5 94 33 11 27 6 120 -33 614 -25 320 -43 585 -40 587 6
7 200 23 289 25 36 0 117 -4 180 -9z"/>
<path d="M52243 34398 c-1031 -959 -2087 -1547 -3195 -1777 -398 -83 -558
-104 -926 -123 -567 -28 -1239 43 -1852 197 -344 86 -766 221 -1096 350 -283
112 -269 107 -309 90 -46 -19 -71 -72 -55 -118 12 -37 68 -77 260 -187 333
-190 753 -375 1132 -499 880 -286 1780 -367 2618 -236 108 18 438 87 550 116
288 76 739 244 1000 374 145 72 433 237 560 320 531 349 977 754 1374 1249
148 184 163 210 142 260 -17 41 -42 56 -90 56 -30 0 -47 -11 -113 -72z"/>
</g>
</svg>
